<?xml version="1.0" encoding="UTF-8" standalone="no"?>
<!-- Created with Inkscape (http://www.inkscape.org/) -->

<svg
   xmlns:dc="http://purl.org/dc/elements/1.1/"
   xmlns:cc="http://creativecommons.org/ns#"
   xmlns:rdf="http://www.w3.org/1999/02/22-rdf-syntax-ns#"
   xmlns:svg="http://www.w3.org/2000/svg"
   xmlns="http://www.w3.org/2000/svg"
   xmlns:sodipodi="http://sodipodi.sourceforge.net/DTD/sodipodi-0.dtd"
   xmlns:inkscape="http://www.inkscape.org/namespaces/inkscape"
   width="800px"
   height="600px"
   id="svg2985"
   version="1.1"
   inkscape:version="0.48.3.1 r9886"
   sodipodi:docname="Nouveau document 2">
  <defs
     id="defs2987" />
  <sodipodi:namedview
     id="base"
     pagecolor="#ffffff"
     bordercolor="#666666"
     borderopacity="1.0"
     inkscape:pageopacity="0.0"
     inkscape:pageshadow="2"
     inkscape:zoom="0.6"
     inkscape:cx="400"
     inkscape:cy="300"
     inkscape:current-layer="layer1"
     inkscape:document-units="px"
     showgrid="false"
     inkscape:window-width="782"
     inkscape:window-height="557"
     inkscape:window-x="284"
     inkscape:window-y="33"
     inkscape:window-maximized="0" />
  <metadata
     id="metadata2990">
    <rdf:RDF>
      <cc:Work
         rdf:about="">
        <dc:format>image/svg+xml</dc:format>
        <dc:type
           rdf:resource="http://purl.org/dc/dcmitype/StillImage" />
        <dc:title></dc:title>
      </cc:Work>
    </rdf:RDF>
  </metadata>
  <g
     id="layer1"
     inkscape:label="Layer 1"
     inkscape:groupmode="layer">
    <path
       style="fill:none;stroke:#000000;stroke-width:1px;stroke-linecap:butt;stroke-linejoin:miter;stroke-opacity:1"
       d="M 0,450 L 40,480 63,471 115,460 l 11,11 35,16 30,6 18,18 11,23 21,10 15,16 11,8 30,21 21,5 45,1 25,-11 15,-35 53,-10 31,-20 10,-40 25,-16 25,-13 58,20 21,-6 L 648,440 l 10,-60 28,-35 L 715,323 736,320 l 31,20 10,35 3,61 L 755,493 l -30,50 26,40 20,13 30,5 L 0,600 z"
       id="path2999"
       inkscape:connector-curvature="0" />
    <path
       style="fill:none;stroke:#000000;stroke-width:1px;stroke-linecap:butt;stroke-linejoin:miter;stroke-opacity:1"
       d="M 105,111 L 41,100 l -13,13 -10,15 0,33 15,13 33,18 21,20 10,26 33,18 30,1 L 200,248 223,225 l 8,-35 0,-21 -48,-10 L 165,150 l -18,-21 -20,-15 z"
       id="path3001"
       inkscape:connector-curvature="0" />
  </g>
  <g
     id="layer2"
     inkscape:label="Layer 2"
     inkscape:groupmode="layer">
    <path
       style="fill:red;stroke:none;stroke-width:1px;stroke-linecap:butt;stroke-linejoin:miter;stroke-opacity:1"
       d="M 0,450 L 40,480 63,471 115,460 l 11,11 35,16 30,6 18,18 11,23 21,10 15,16 11,8 30,21 21,5 45,1 25,-11 15,-35 53,-10 31,-20 10,-40 25,-16 25,-13 58,20 21,-6 L 648,440 l 10,-60 28,-35 L 715,323 736,320 l 31,20 10,35 3,61 L 755,493 l -30,50 26,40 20,13 30,5 L 0,600 z"
       id="path2999"
       inkscape:connector-curvature="0" />
  </g>
</svg>
